<?xml version="1.0" encoding="utf-8"?>
<!-- Generator: Adobe Illustrator 19.0.0, SVG Export Plug-In . SVG Version: 6.00 Build 0)  -->
<svg version="1.1" id="Layer_1" xmlns="http://www.w3.org/2000/svg" xmlns:xlink="http://www.w3.org/1999/xlink" x="0px" y="0px"
	 viewBox="0 0 618.3 566.9" style="enable-background:new 0 0 618.3 566.9;" xml:space="preserve">
<style type="text/css">
	.st0{fill:#FFFFFF;}
	.st1{opacity:0.5;}
	.st2{fill:url(#SVGID_1_);}
	.st3{fill:url(#SVGID_2_);}
	.st4{fill:url(#SVGID_3_);}
	.st5{fill:url(#SVGID_4_);}
	.st6{fill:#001E62;}
</style>
<g>
	<g>
		<path class="st0" d="M607.3,450.6c-8.6-44.6-21.4-138.2-23.4-149.4c-2.5-14.4-31.7-201-36.9-253.5c-2.2-22.3-2.5-29.4-3.6-35.5
			c-1-5.4-3.3-5.5-3.3-5.5s-0.1,0-0.2,0L401.8,0c0,0-5.7-0.3-7.8,4.1c-3.3,6.9-5.7,22.2-9.7,36.6c-7.5,26.9-38.5,127.7-60,205
			c-3.3,11.9-6.6,23.6-10,35.1c-9.1-39-18.4-77.7-26.5-107.6c-31.3-115.3-40.7-153.6-48-165.5c-3.1-5-5.2-5.2-7.5-5.2
			c-1.9,0-128.9,5.7-137.6,6.1l-0.5,0c-0.7,0-2.1,0.5-3,1.8c-2.4,3.1-5,13.6-10.5,54c-1.7,12.4-18.8,113.1-25.6,149.4
			c-5,26.5-28.1,153.7-40.2,220.1C10.4,458.2,0,474.4,0,474.4l134.4,1.9c0,0,7.6-2.7,14.4-40.4c4.8-27,13-71.9,26.8-146.4
			c3.9,15.7,7.1,29,9.4,38.7c13.4,57.5,28.8,153.8,52.9,153.8l1.1,0c-0.4,0.1-0.6,0.1-0.6,0.1s40.6,0.1,78.5,0.3l63.7,0.4
			c0.1,0,0.2,0,0.3,0c0,0,0.1,0,0.1,0l0.4,0c0,0-0.1,0-0.1,0c18.6,0,19.6-30.3,61.3-169.6c2.1-7.1,4.3-14.3,6.4-21.4
			c10.8,69.6,20.5,132.8,22.3,148.3c0.6,5.2,1.3,9.7,2,13.5c3.9,22.4,13,21.5,13,21.5l132.1-1.3
			C616.9,472.2,609.8,463.5,607.3,450.6z"/>
		<path class="st0" d="M607.3,450.6c-8.6-44.6-21.4-138.2-23.4-149.4c-2.5-14.4-31.7-201-36.9-253.5c-2.2-22.3-2.5-29.4-3.6-35.5
			c-1-5.4-3.3-5.5-3.3-5.5s-0.1,0-0.2,0L401.8,0c0,0-5.7-0.3-7.8,4.1c-3.3,6.9-5.7,22.2-9.7,36.6c-7.5,26.9-38.5,127.6-60,205
			c-3.3,11.9-6.6,23.6-10,35.1c-9.1-39-18.4-77.7-26.5-107.6c-31.3-115.3-40.7-153.6-48-165.5c-3.1-5-5.2-5.2-7.5-5.2
			c-2,0-138.1,6.1-138.1,6.1c-0.7,0-2.1,0.5-3,1.8c-2.4,3.1-5,13.6-10.5,54c-1.7,12.4-18.8,113.1-25.6,149.4
			c-5,26.5-28.1,153.7-40.2,220.1C10.4,458.2,0,474.4,0,474.4l134.4,1.9c0,0,7.6-2.7,14.4-40.4c4.8-27,13-71.9,26.8-146.4
			c3.9,15.7,7.1,29,9.4,38.7c13.4,57.5,28.8,153.8,52.9,153.8l1.1,0c-0.4,0.1-0.7,0.1-0.7,0.1s40.5,0.1,78.3,0.3l63.8,0.4
			c0.1,0,0.2,0,0.2,0c0,0,0.1,0,0.1,0l0.4,0c0,0-0.1,0-0.1,0c18.6,0,19.6-30.3,61.3-169.6c2.1-7.1,4.3-14.3,6.4-21.4
			c10.8,69.6,20.5,132.8,22.3,148.3c0.6,5.2,1.3,9.7,2,13.5c3.9,22.4,13,21.5,13,21.5l132.1-1.3
			C616.9,472.2,609.8,463.5,607.3,450.6z"/>
		<g class="st1">
			<linearGradient id="SVGID_1_" gradientUnits="userSpaceOnUse" x1="510.0507" y1="482.7298" x2="510.0507" y2="-38.1365">
				<stop  offset="0.1298" style="stop-color:#A4A4A4"/>
				<stop  offset="0.2429" style="stop-color:#838383"/>
				<stop  offset="0.4554" style="stop-color:#4B4B4B"/>
				<stop  offset="0.6382" style="stop-color:#222222"/>
				<stop  offset="0.782" style="stop-color:#090909"/>
				<stop  offset="0.8691" style="stop-color:#000000"/>
			</linearGradient>
			<path class="st2" d="M540.2,6.9c0,0,2.3,0.1,3.3,5.5c1.1,6,1.4,13.1,3.6,35.5c5.1,52.5,34.4,239.1,36.9,253.5
				c1.9,11.2,14.8,104.8,23.4,149.4c2.5,12.8,9.6,21.6,11,23.1L486.2,475c0,0-9.1,0.9-13-21.5c-0.7-3.8-1.3-8.2-2-13.5
				c-4.4-36.3-51.6-334-55.6-364.4c-2.5-18.8-6.6-46.4-9.4-62.2C404,0.6,401.8,0,401.8,0L540.2,6.9z"/>
			<linearGradient id="SVGID_2_" gradientUnits="userSpaceOnUse" x1="116.1507" y1="512.5545" x2="116.1507" y2="19.591">
				<stop  offset="0.2165" style="stop-color:#A1A1A1"/>
				<stop  offset="0.3461" style="stop-color:#878787"/>
				<stop  offset="0.621" style="stop-color:#454545"/>
				<stop  offset="0.8867" style="stop-color:#000000"/>
			</linearGradient>
			<path class="st3" d="M232.3,2.5c0,0-2.4,0-3.6,3.8c-1.6,5.5-2.2,16.7-4.8,30.1c-5.8,30-17.1,85.4-38.3,199.2
				c-20.1,107.7-31,167.3-36.8,200.2c-6.7,37.8-14.4,40.4-14.4,40.4L0,474.4c0,0,10.4-16.2,14.8-40.5c12-66.4,35.1-193.6,40.2-220.1
				c6.9-36.3,23.9-137,25.6-149.4c5.5-40.4,8.2-50.9,10.5-54c1-1.3,2.4-1.7,3-1.8"/>
			<linearGradient id="SVGID_3_" gradientUnits="userSpaceOnUse" x1="389.2391" y1="-24.0029" x2="389.2391" y2="510.4585">
				<stop  offset="6.271923e-002" style="stop-color:#FFFFFF"/>
				<stop  offset="9.677386e-002" style="stop-color:#CDCDCD"/>
				<stop  offset="0.1347" style="stop-color:#9E9E9E"/>
				<stop  offset="0.1748" style="stop-color:#737373"/>
				<stop  offset="0.2165" style="stop-color:#505050"/>
				<stop  offset="0.2602" style="stop-color:#333333"/>
				<stop  offset="0.3066" style="stop-color:#1C1C1C"/>
				<stop  offset="0.3568" style="stop-color:#0C0C0C"/>
				<stop  offset="0.4138" style="stop-color:#030303"/>
				<stop  offset="0.4921" style="stop-color:#000000"/>
				<stop  offset="0.5475" style="stop-color:#050505"/>
				<stop  offset="0.6168" style="stop-color:#151515"/>
				<stop  offset="0.6934" style="stop-color:#2E2E2E"/>
				<stop  offset="0.7753" style="stop-color:#525252"/>
				<stop  offset="0.8614" style="stop-color:#7F7F7F"/>
				<stop  offset="0.9498" style="stop-color:#B6B6B6"/>
				<stop  offset="1" style="stop-color:#D9D9D9"/>
			</linearGradient>
			<path class="st4" d="M540.2,6.9c0,0-4.5-0.6-6.4,5.9c-3.5,12.3-48.5,157.5-91.3,300.3c-42,140.3-42.7,170.1-61.7,169.6
				c-9.4-0.2-142.4-0.7-142.4-0.7s2.3,0,6.3-4.7c4.7-5.5,11.3-22.3,16.6-34.8c13.1-31.3,39.4-111.3,63.1-196.9
				c21.5-77.4,52.5-178.1,60-205c4-14.3,6.4-29.7,9.7-36.6c2.1-4.4,7.8-4.1,7.8-4.1L540.2,6.9z"/>
			<linearGradient id="SVGID_4_" gradientUnits="userSpaceOnUse" x1="237.6895" y1="-7.7212" x2="237.6895" y2="498.1172">
				<stop  offset="0" style="stop-color:#000000"/>
				<stop  offset="0.2204" style="stop-color:#C9C9C9"/>
				<stop  offset="0.4873" style="stop-color:#555555"/>
				<stop  offset="0.6234" style="stop-color:#525252"/>
				<stop  offset="0.7279" style="stop-color:#484848"/>
				<stop  offset="0.8218" style="stop-color:#383838"/>
				<stop  offset="0.9095" style="stop-color:#212121"/>
				<stop  offset="0.9923" style="stop-color:#030303"/>
				<stop  offset="1" style="stop-color:#000000"/>
			</linearGradient>
			<path class="st5" d="M94.2,8.6c0,0,2.8-0.1,4.8,2.5c4.4,5.5,10,20.1,19.1,54.5c18.3,69.8,55.5,213.3,66.9,262.5
				c13.4,57.5,28.8,153.8,52.9,153.8l143.4,0.9c0,0-3.4-0.2-6.6-2.7c-5.4-4.3-12.2-8.8-19.9-30.7c-9.7-27.8-43.3-189.3-66.9-276.2
				c-31.3-115.3-40.7-153.6-48-165.5c-3.1-5-5.2-5.2-7.5-5.2C230.3,2.5,94.2,8.6,94.2,8.6z"/>
		</g>
	</g>
	<g>
		<polygon class="st6" points="121,541.9 119.6,544.9 118.3,542.1 102.5,518.3 95.8,518.3 95.8,566.1 104.3,566.1 104.3,535.7 
			117.7,556 120.9,556 133.9,535.3 134.1,535 134,566.1 142.9,566.1 142.9,518.3 135.9,518.3 		"/>
		<polygon class="st6" points="171.8,538 171.6,538.6 159.7,518.3 149.3,518.3 166.7,547.4 166.7,566.1 175.6,566.1 175.6,547.4 
			192.7,518.3 183,518.3 		"/>
		<polygon class="st6" points="195.6,526.4 210.9,526.4 210.9,566.1 219.8,566.1 219.8,526.4 235.1,526.4 235.1,518.3 195.6,518.3 
					"/>
		<polygon class="st6" points="241.9,525 247.9,525 247.9,559.4 241.9,559.4 241.9,566.1 262.8,566.1 262.8,559.4 256.8,559.4 
			256.8,525 262.8,525 262.8,518.3 241.9,518.3 		"/>
		<polygon class="st6" points="284.8,518.3 275.9,518.3 275.9,566.1 308,566.1 308,558 284.8,558 		"/>
		<polygon class="st6" points="313.2,525 319.2,525 319.2,559.4 313.2,559.4 313.2,566.1 334.1,566.1 334.1,559.4 328.1,559.4 
			328.1,525 334.1,525 334.1,518.3 313.2,518.3 		"/>
		<polygon class="st6" points="376.8,548.3 376.9,549.5 375.7,547.5 352.7,518.3 346.8,518.3 346.8,566.1 355.3,566.1 355.3,536 
			355.1,534.5 356.4,536.7 379.9,566.7 385.3,566.7 385.3,518.3 376.8,518.3 		"/>
		<polygon class="st6" points="409.7,545.8 428.8,545.8 428.8,537.7 409.7,537.7 409.7,526.4 430.6,526.4 430.6,518.3 400.8,518.3 
			400.8,566.1 430.9,566.1 430.9,558 409.7,558 		"/>
		<path class="st6" d="M477.4,524.4c-1.8-2.2-4.1-3.9-6.9-5.1c-2.7-1.2-5.9-1.8-9.5-1.8c-3.3,0-6.4,0.6-9.1,1.7
			c-2.7,1.1-5,2.8-6.9,4.9c-1.9,2.1-3.3,4.8-4.3,7.8c-1,3-1.5,6.5-1.5,10.3c0,3.6,0.4,6.9,1.3,9.9c0.9,3,2.2,5.7,4,7.9
			c1.8,2.2,4.1,3.9,6.8,5.1c2.7,1.2,5.9,1.8,9.5,1.8c3.3,0,6.4-0.6,9.1-1.7c2.7-1.1,5-2.8,6.9-4.9c1.9-2.1,3.3-4.8,4.3-7.8
			c1-3,1.5-6.5,1.5-10.3c0-3.6-0.4-6.9-1.3-9.9C480.5,529.2,479.2,526.6,477.4,524.4z M473.4,542.2c0,5.8-1.1,10.1-3.4,12.7
			c-2.2,2.6-5.2,3.9-9,3.9c-2.1,0-4-0.4-5.5-1.3c-1.5-0.8-2.8-2-3.8-3.5c-1-1.5-1.8-3.3-2.3-5.3c-0.5-2-0.8-4.3-0.8-6.6
			c0-5.7,1.1-10,3.4-12.7c2.2-2.7,5.2-3.9,9-3.9c2.2,0,4,0.4,5.5,1.3c1.5,0.9,2.8,2.1,3.8,3.5c1,1.5,1.8,3.3,2.3,5.3
			C473.2,537.7,473.4,539.9,473.4,542.2z"/>
		<path class="st6" d="M521.7,547.5c-1.2-2.8-3.8-5.2-8-7.2c-1.9-0.9-3.8-1.6-5.7-2.4c-1.3-0.5-2.6-1-3.8-1.5
			c-1.7-0.7-3-1.5-4.1-2.4c-0.9-0.8-1.3-1.7-1.3-3c0-1.2,0.6-2.2,1.8-3.2c1.2-1,3.2-1.5,5.9-1.5h13.1l0-7.9h-12.8
			c-5.3,0-9.4,1.2-12.3,3.5c-3,2.4-4.5,5.6-4.5,9.5c0,2.8,0.7,5.1,2,6.9c3.1,4.2,7.7,5.7,12.1,7.1c1.9,0.6,3.7,1.2,5.3,1.9
			c2.9,1.3,4.3,3.1,4.3,5.2c0,1-0.2,1.8-0.6,2.5c-0.4,0.7-1,1.3-1.8,1.7c-0.9,0.5-1.9,0.9-3,1.1c-1.2,0.3-2.5,0.4-4,0.4h-12.7v7.9
			h12.9c2.7,0,5.2-0.3,7.4-1c2.2-0.6,4.1-1.6,5.7-2.8c1.6-1.2,2.9-2.7,3.7-4.5c0.9-1.7,1.3-3.7,1.3-5.8
			C522.5,550.3,522.2,548.8,521.7,547.5z"/>
	</g>
</g>
</svg>
